<svg xmlns="http://www.w3.org/2000/svg"><symbol id="check" viewBox="0 0 512 512"><path d="M173.898 439.404l-166.4-166.4c-9.997-9.997-9.997-26.206 0-36.204l36.203-36.204c9.997-9.998 26.207-9.998 36.204 0L192 312.69 432.095 72.596c9.997-9.997 26.207-9.997 36.204 0l36.203 36.204c9.997 9.997 9.997 26.206 0 36.204l-294.4 294.401c-9.998 9.997-26.207 9.997-36.204-.001z"/></symbol><symbol id="home" viewBox="0 0 576 512"><path d="M280.37 148.26L96 300.11V464a16 16 0 0016 16l112.06-.29a16 16 0 0015.92-16V368a16 16 0 0116-16h64a16 16 0 0116 16v95.64a16 16 0 0016 16.05L464 480a16 16 0 0016-16V300L295.67 148.26a12.19 12.19 0 00-15.3 0zM571.6 251.47L488 182.56V44.05a12 12 0 00-12-12h-56a12 12 0 00-12 12v72.61L318.47 43a48 48 0 00-61 0L4.34 251.47a12 12 0 00-1.6 16.9l25.5 31A12 12 0 0045.15 301l235.22-193.74a12.19 12.19 0 0115.3 0L530.9 301a12 12 0 0016.9-1.6l25.5-31a12 12 0 00-1.7-16.93z"/></symbol><symbol id="ellipsis" viewBox="0 0 512 512"><path d="M328 256c0 39.8-32.2 72-72 72s-72-32.2-72-72 32.2-72 72-72 72 32.2 72 72zm104-72c-39.8 0-72 32.2-72 72s32.2 72 72 72 72-32.2 72-72-32.2-72-72-72zm-352 0c-39.8 0-72 32.2-72 72s32.2 72 72 72 72-32.2 72-72-32.2-72-72-72z"/></symbol><symbol id="chevron-down" viewBox="0 0 448 512"><path d="M441.9 167.3l-19.8-19.8c-4.7-4.7-12.3-4.7-17 0L224 328.2 42.9 147.5c-4.7-4.7-12.3-4.7-17 0L6.1 167.3c-4.7 4.7-4.7 12.3 0 17l209.4 209.4c4.7 4.7 12.3 4.7 17 0l209.4-209.4c4.7-4.7 4.7-12.3 0-17z"/></symbol><symbol id="warning" viewBox="0 0 576 512"><path d="M569.517 440.013C587.975 472.007 564.806 512 527.94 512H48.054c-36.937 0-59.999-40.055-41.577-71.987L246.423 23.985c18.467-32.009 64.72-31.951 83.154 0l239.94 416.028zM288 354c-25.405 0-46 20.595-46 46s20.595 46 46 46 46-20.595 46-46-20.595-46-46-46zm-43.673-165.346l7.418 136c.347 6.364 5.609 11.346 11.982 11.346h48.546c6.373 0 11.635-4.982 11.982-11.346l7.418-136c.375-6.874-5.098-12.654-11.982-12.654h-63.383c-6.884 0-12.356 5.78-11.981 12.654z"/></symbol><symbol id="upload" viewBox="0 0 640 512"><path d="M543.7 200.1C539.7 142.1 491.4 96 432 96c-7.6 0-15.1.8-22.4 2.3C377.7 58.3 328.1 32 272 32c-84.6 0-155.5 59.7-172.3 139.8C39.9 196.1 0 254.4 0 320c0 88.4 71.6 160 160 160h336c79.5 0 144-64.5 144-144 0-61.8-39.2-115.8-96.3-135.9zM496 432H160c-61.9 0-112-50.1-112-112 0-56.4 41.7-103.1 96-110.9V208c0-70.7 57.3-128 128-128 53.5 0 99.3 32.8 118.4 79.4 11.2-9.6 25.7-15.4 41.6-15.4 35.3 0 64 28.7 64 64 0 11.8-3.2 22.9-8.8 32.4 2.9-.3 5.9-.4 8.8-.4 53 0 96 43 96 96s-43 96-96 96zM296.5 150.5c-4.7-4.7-12.3-4.7-17 0l-104 104c-4.7 4.7-4.7 12.3 0 17l16.9 16.9c4.7 4.7 12.4 4.7 17.1-.1l54.5-55.8V372c0 6.6 5.4 12 12 12h24c6.6 0 12-5.4 12-12V232.5l54.5 55.8c4.7 4.8 12.3 4.8 17.1.1l16.9-16.9c4.7-4.7 4.7-12.3 0-17l-104-104z"/></symbol><symbol id="currency" viewBox="0 0 320 512"><path d="M308 360h-30.284c-6.627 0-12 5.373-12 12v56.835H112V280h100c6.627 0 12-5.373 12-12v-24c0-6.627-5.373-12-12-12H112v-77.081c0-37.438 26.786-67.388 72.958-67.388 25.94 0 48.692 11.882 60.552 19.451 5.141 3.28 11.923 2.156 15.758-2.586l19.658-24.305c4.35-5.378 3.262-13.296-2.365-17.32C262.736 51.456 229.027 32 184.334 32 105.716 32 48 83.164 48 152.423V232H20c-6.627 0-12 5.373-12 12v24c0 6.627 5.373 12 12 12h28v148.835H12c-6.627 0-12 5.373-12 12V468c0 6.627 5.373 12 12 12h296c6.627 0 12-5.373 12-12v-96c0-6.627-5.373-12-12-12z"/></symbol></svg>